<svg width="24" height="24" viewBox="0 0 300 300" fill="none" xmlns="http://www.w3.org/2000/svg">
<rect width="300" height="300" rx="32" fill="url(#paint0_linear_7696_3454)"/>
<path d="M52.2832 52.2656V32.8457H128.544C131.296 54.2602 109.813 54.715 98.7271 52.2656V134.669H76.3648V52.2656H52.2832Z" fill="white"/>
<path fill-rule="evenodd" clip-rule="evenodd" d="M49.7512 179.111V265.714C70.7456 267.813 105.437 270.7 120.083 249.443C126.287 240.439 136.143 223.095 129.005 197.482C126.381 185.76 114.726 163.891 85.4416 163.89C83.8206 163.89 82.0224 163.841 80.1195 163.79C66.5085 163.419 47.5411 162.902 49.7512 179.111ZM69.7031 183.961V246.796C83.5857 249.557 111.448 247.186 111.838 215.622C112.244 202.795 104.384 178.505 69.7031 183.961Z" fill="white"/>
<g clip-path="url(#clip0_7696_3454)">
<path d="M172.352 114.791C173.917 114.791 175.227 114.261 176.283 113.203C177.338 112.144 177.866 110.833 177.866 109.268C177.866 107.704 177.337 106.393 176.278 105.338C175.22 104.282 173.908 103.754 172.344 103.754C170.779 103.754 169.469 104.284 168.413 105.342C167.358 106.4 166.83 107.712 166.83 109.277C166.83 110.841 167.359 112.151 168.418 113.207C169.476 114.263 170.788 114.791 172.352 114.791ZM172.352 90.5588C173.917 90.5588 175.227 90.0296 176.283 88.9713C177.338 87.9128 177.866 86.6012 177.866 85.0366C177.866 83.4719 177.337 82.1617 176.278 81.1061C175.22 80.0505 173.908 79.5228 172.344 79.5228C170.779 79.5228 169.469 80.0519 168.413 81.1103C167.358 82.1688 166.83 83.4803 166.83 85.045C166.83 86.6096 167.359 87.9198 168.418 88.9755C169.476 90.031 170.788 90.5588 172.352 90.5588ZM172.352 66.3272C173.917 66.3272 175.227 65.7979 176.283 64.7395C177.338 63.6811 177.866 62.3696 177.866 60.8049C177.866 59.2403 177.337 57.9301 176.278 56.8745C175.22 55.8188 173.908 55.291 172.344 55.291C170.779 55.291 169.469 55.8202 168.413 56.8787C167.358 57.9371 166.83 59.2487 166.83 60.8134C166.83 62.378 167.359 63.6881 168.418 64.7437C169.476 65.7993 170.788 66.3272 172.352 66.3272ZM195.98 113.951H222.131C223.456 113.951 224.567 113.502 225.464 112.605C226.361 111.708 226.809 110.596 226.809 109.27C226.809 107.944 226.361 106.833 225.464 105.938C224.567 105.042 223.456 104.594 222.131 104.594H195.98C194.654 104.594 193.543 105.043 192.646 105.94C191.75 106.837 191.301 107.948 191.301 109.275C191.301 110.601 191.75 111.712 192.646 112.607C193.543 113.503 194.654 113.951 195.98 113.951ZM195.98 89.719H222.131C223.456 89.719 224.567 89.2705 225.464 88.3735C226.361 87.4764 226.809 86.3648 226.809 85.0387C226.809 83.7126 226.361 82.6017 225.464 81.706C224.567 80.8104 223.456 80.3625 222.131 80.3625H195.98C194.654 80.3625 193.543 80.811 192.646 81.708C191.75 82.6051 191.301 83.7167 191.301 85.0428C191.301 86.369 191.75 87.4799 192.646 88.3755C193.543 89.2712 194.654 89.719 195.98 89.719ZM195.98 65.4874H222.131C223.456 65.4874 224.567 65.0388 225.464 64.1417C226.361 63.2447 226.809 62.1331 226.809 60.807C226.809 59.4809 226.361 58.37 225.464 57.4744C224.567 56.5786 223.456 56.1308 222.131 56.1308H195.98C194.654 56.1308 193.543 56.5793 192.646 57.4764C191.75 58.3735 191.301 59.4851 191.301 60.8112C191.301 62.1374 191.75 63.2483 192.646 64.1439C193.543 65.0396 194.654 65.4874 195.98 65.4874ZM155.194 138.063C152.043 138.063 149.376 136.971 147.193 134.788C145.01 132.604 143.918 129.937 143.918 126.786V43.2952C143.918 40.1443 145.01 37.4772 147.193 35.2939C149.376 33.1107 152.043 32.019 155.194 32.019H238.685C241.836 32.019 244.503 33.1107 246.686 35.2939C248.869 37.4772 249.961 40.1443 249.961 43.2952V126.786C249.961 129.937 248.869 132.604 246.686 134.788C244.503 136.971 241.836 138.063 238.685 138.063H155.194Z" fill="white"/>
</g>
<path d="M186.147 235.601C187.709 237.163 190.24 237.163 191.802 235.601L223.981 203.44C225.544 201.877 225.544 199.344 223.981 197.781L223.709 197.509C222.147 195.948 219.615 195.948 218.053 197.509L191.802 223.746C190.24 225.307 187.709 225.307 186.147 223.746L175.762 213.367C174.2 211.806 171.669 211.806 170.107 213.367L169.834 213.639C168.271 215.202 168.271 217.736 169.834 219.298L186.147 235.601ZM196.971 267.937C189.577 267.937 182.626 266.535 176.119 263.73C169.612 260.925 163.952 257.118 159.139 252.31C154.326 247.501 150.515 241.847 147.708 235.346C144.9 228.846 143.496 221.9 143.496 214.509C143.496 207.118 144.899 200.171 147.706 193.668C150.512 187.165 154.321 181.508 159.132 176.697C163.943 171.886 169.601 168.078 176.105 165.272C182.608 162.466 189.558 161.062 196.952 161.062C204.347 161.062 211.298 162.465 217.805 165.27C224.312 168.075 229.972 171.882 234.785 176.69C239.598 181.499 243.408 187.153 246.216 193.654C249.024 200.154 250.428 207.1 250.428 214.49C250.428 221.881 249.024 228.828 246.218 235.332C243.411 241.835 239.603 247.492 234.792 252.303C229.981 257.113 224.323 260.922 217.819 263.728C211.315 266.534 204.366 267.937 196.971 267.937Z" fill="white"/>
<defs>
<linearGradient id="paint0_linear_7696_3454" x1="284.69" y1="21.6064" x2="22.5883" y2="307.83" gradientUnits="userSpaceOnUse">
<stop stop-color="#E59700"/>
<stop offset="1" stop-color="#DCD300"/>
</linearGradient>
<clipPath id="clip0_7696_3454">
<rect x="143.961" y="32.0625" width="106" height="106" rx="53" fill="white"/>
</clipPath>
</defs>
</svg>
